<?xml version="1.0" encoding="UTF-8"?>
<svg width="24px" height="24px" viewBox="0 0 24 24" version="1.1" xmlns="http://www.w3.org/2000/svg" xmlns:xlink="http://www.w3.org/1999/xlink">
    <!-- Generator: Sketch 46.2 (44496) - http://www.bohemiancoding.com/sketch -->
    <title>Icons/Misc/Notifications</title>
    <desc>Created with Sketch.</desc>
    <defs></defs>
    <g id="Symbols" stroke="none" stroke-width="1" fill="none" fill-rule="evenodd">
        <g id="Icons/Misc/Notifications">
            <polygon id="Shape" points="0 0 24 0 24 24 0 24"></polygon>
            <path d="M12,22 C13.105,22 14,21.105 14,20 L10,20 C10,21.105 10.895,22 12,22 Z M18,16 L18,11 C18,7.925 16.365,5.36 13.5,4.68 L13.5,4 C13.5,3.17 12.83,2.5 12,2.5 C11.17,2.5 10.5,3.17 10.5,4 L10.5,4.68 C7.635,5.36 6,7.925 6,11 L6,16 L4,18 L4,19 L20,19 L20,18 L18,16 Z" id="Shape" fill="#FFFFFF" fill-rule="nonzero"></path>
        </g>
    </g>
</svg>